<svg width="24" height="24" viewBox="0 0 24 24" fill="none" xmlns="http://www.w3.org/2000/svg">
<path d="M17.0013 5.33984C17.9813 5.33984 18.9012 5.71984 19.5912 6.40984C21.0212 7.83984 21.0212 10.1598 19.5912 11.5798L18.5912 12.5798L15.5912 15.5798L12.0013 19.1698L8.41124 15.5798L4.41124 11.5798C2.98124 10.1498 2.98124 7.82984 4.41124 6.40984C5.10124 5.71984 6.02125 5.33984 7.00125 5.33984C7.98125 5.33984 8.90125 5.71984 9.59125 6.40984L10.5912 7.40984L12.0013 8.81984L13.4112 7.40984L14.4112 6.40984C15.1012 5.71984 16.0212 5.33984 17.0013 5.33984ZM17.0013 3.33984C15.5513 3.33984 14.1013 3.88984 13.0013 4.99984L12.0013 5.99984L11.0013 4.99984C9.90125 3.89984 8.45125 3.33984 7.00125 3.33984C5.55125 3.33984 4.10125 3.88984 3.00125 4.99984C0.79125 7.20984 0.79125 10.7898 3.00125 12.9998L7.00125 16.9998L12.0013 21.9998L17.0013 16.9998L20.0012 13.9998L21.0012 12.9998C23.2113 10.7898 23.2113 7.20984 21.0012 4.99984C19.9012 3.89984 18.4513 3.33984 17.0013 3.33984Z" fill="#BABABA"/>
</svg>
