<svg width="24" height="24" viewBox="0 0 24 24" fill="none" xmlns="http://www.w3.org/2000/svg">
<path d="M11.1667 6.16667C13.925 6.16667 16.1667 8.40833 16.1667 11.1667C16.1667 13.925 13.925 16.1667 11.1667 16.1667C8.40833 16.1667 6.16667 13.925 6.16667 11.1667C6.16667 8.40833 8.40833 6.16667 11.1667 6.16667ZM11.1667 4.5C7.48333 4.5 4.5 7.48333 4.5 11.1667C4.5 14.85 7.48333 17.8333 11.1667 17.8333C14.85 17.8333 17.8333 14.85 17.8333 11.1667C17.8333 7.48333 14.85 4.5 11.1667 4.5Z" fill="#BABABA"/>
<path d="M16.0669 14.5933L14.5938 16.0664L18.7598 20.2324L20.2329 18.7593L16.0669 14.5933Z" fill="#BABABA"/>
</svg>
