<svg width="28" height="28" viewBox="0 0 28 28" fill="none" xmlns="http://www.w3.org/2000/svg">
<path d="M10.5026 10.4987H8.16927V12.832H10.5026V10.4987Z" fill="#5C80B6"/>
<path d="M19.8359 10.4987H17.5026V12.832H19.8359V10.4987Z" fill="#5C80B6"/>
<path d="M8.16927 15.1654H10.5026V17.4987H8.16927V15.1654Z" fill="#5C80B6"/>
<path d="M15.1693 10.4987H12.8359V12.832H15.1693V10.4987Z" fill="#5C80B6"/>
<path d="M12.8359 15.1654H15.1693V17.4987H12.8359V15.1654Z" fill="#5C80B6"/>
<path d="M19.8359 15.1654H17.5026V17.4987H19.8359V15.1654Z" fill="#5C80B6"/>
<path fill-rule="evenodd" clip-rule="evenodd" d="M17.5026 2.33203H19.8359V4.66536H23.3359C24.6193 4.66536 25.6693 5.71536 25.6693 6.9987V20.9987C25.6693 22.282 24.6193 23.332 23.3359 23.332H4.66927C3.38594 23.332 2.33594 22.282 2.33594 20.9987V6.9987C2.33594 5.71536 3.38594 4.66536 4.66927 4.66536H8.16927V2.33203H10.5026V4.66536H17.5026V2.33203ZM4.66927 20.9987V6.9987H23.3359V20.9987H4.66927Z" fill="#5C80B6"/>
</svg>
