<svg width="28" height="28" viewBox="0 0 28 28" fill="none" xmlns="http://www.w3.org/2000/svg">
<path fill-rule="evenodd" clip-rule="evenodd" d="M9.33333 11.668C11.2663 11.668 12.8333 10.101 12.8333 8.16797C12.8333 6.23497 11.2663 4.66797 9.33333 4.66797C7.40034 4.66797 5.83333 6.23497 5.83333 8.16797C5.83333 10.101 7.40034 11.668 9.33333 11.668ZM9.33333 9.91797C10.2998 9.91797 11.0833 9.13447 11.0833 8.16797C11.0833 7.20147 10.2998 6.41797 9.33333 6.41797C8.36683 6.41797 7.58333 7.20147 7.58333 8.16797C7.58333 9.13447 8.36683 9.91797 9.33333 9.91797ZM9.33333 12.8346C6.11167 12.8346 3.5 15.4463 3.5 18.668V24.5013H5.25V18.668C5.25 16.4128 7.07817 14.5846 9.33333 14.5846C11.5885 14.5846 13.4167 16.4128 13.4167 18.668V24.5013H15.1667V18.668C15.1667 18.0954 15.0845 17.5413 14.9307 17.0185C14.7318 16.3423 14.4133 15.7175 14.0003 15.1678C12.936 13.751 11.2417 12.8346 9.33333 12.8346ZM24.5005 24.5013V18.668C24.5005 15.4463 21.8889 12.8346 18.6672 12.8346C17.3946 12.8346 16.2172 13.2422 15.2583 13.9338C15.6232 14.3898 15.9365 14.8888 16.1894 15.4221C16.8766 14.8967 17.7354 14.5846 18.6672 14.5846C20.9224 14.5846 22.7505 16.4128 22.7505 18.668V24.5013H24.5005ZM18.6667 11.668C20.5997 11.668 22.1667 10.101 22.1667 8.16797C22.1667 6.23497 20.5997 4.66797 18.6667 4.66797C16.7337 4.66797 15.1667 6.23497 15.1667 8.16797C15.1667 10.101 16.7337 11.668 18.6667 11.668ZM18.6667 9.91797C19.6332 9.91797 20.4167 9.13447 20.4167 8.16797C20.4167 7.20147 19.6332 6.41797 18.6667 6.41797C17.7002 6.41797 16.9167 7.20147 16.9167 8.16797C16.9167 9.13447 17.7002 9.91797 18.6667 9.91797Z" fill="#6B758F"/>
</svg>
