<svg width="16" height="16" viewBox="0 0 16 16" fill="none" xmlns="http://www.w3.org/2000/svg">
<path fill-rule="evenodd" clip-rule="evenodd" d="M6.23014 2.89891C6.69898 2.43007 7.33488 2.16667 7.99792 2.16667C8.66095 2.16667 9.29683 2.43006 9.76568 2.89891C10.2345 3.36775 10.4979 4.00363 10.4979 4.66667V5.33281H5.49792V4.66667C5.49792 4.00362 5.7613 3.36774 6.23014 2.89891ZM3.83125 5.33281V4.66667C3.83125 3.5616 4.27022 2.5018 5.05163 1.7204C5.83303 0.938995 6.89285 0.5 7.99792 0.5C9.10299 0.5 10.1628 0.938999 10.9442 1.7204C11.7256 2.50179 12.1646 3.56159 12.1646 4.66667V5.33281H12.6667C13.403 5.33281 14 5.92977 14 6.66615V13.3328C14 14.0692 13.403 14.6661 12.6667 14.6661H3.33333C2.59695 14.6661 2 14.0692 2 13.3328V6.66615C2 5.92977 2.59695 5.33281 3.33333 5.33281H3.83125ZM8.16875 8.66621H7.83542C7.46723 8.66621 7.16875 8.96469 7.16875 9.33288V10.6662C7.16875 11.0344 7.46723 11.3329 7.83542 11.3329H8.16875C8.53694 11.3329 8.83542 11.0344 8.83542 10.6662V9.33288C8.83542 8.96469 8.53694 8.66621 8.16875 8.66621Z" fill="#BABABA"/>
</svg>
