<svg width="26" height="24" viewBox="0 0 26 24" fill="none" xmlns="http://www.w3.org/2000/svg">
<g filter="url(#filter0_d_555_12277)">
<path d="M18.0013 5.33984C18.9813 5.33984 19.9012 5.71984 20.5912 6.40984C22.0212 7.83984 22.0212 10.1598 20.5912 11.5798L19.5912 12.5798L16.5912 15.5798L13.0013 19.1698L9.41124 15.5798L5.41124 11.5798C3.98124 10.1498 3.98124 7.82984 5.41124 6.40984C6.10124 5.71984 7.02125 5.33984 8.00125 5.33984C8.98125 5.33984 9.90125 5.71984 10.5912 6.40984L11.5912 7.40984L13.0013 8.81984L14.4112 7.40984L15.4112 6.40984C16.1012 5.71984 17.0212 5.33984 18.0013 5.33984ZM18.0013 3.33984C16.5513 3.33984 15.1013 3.88984 14.0013 4.99984L13.0013 5.99984L12.0013 4.99984C10.9012 3.89984 9.45125 3.33984 8.00125 3.33984C6.55125 3.33984 5.10125 3.88984 4.00125 4.99984C1.79125 7.20984 1.79125 10.7898 4.00125 12.9998L8.00125 16.9998L13.0013 21.9998L18.0013 16.9998L21.0012 13.9998L22.0012 12.9998C24.2113 10.7898 24.2113 7.20984 22.0012 4.99984C20.9012 3.89984 19.4513 3.33984 18.0013 3.33984Z" fill="white"/>
</g>
<defs>
<filter id="filter0_d_555_12277" x="0.34375" y="1.33984" width="25.3125" height="22.6602" filterUnits="userSpaceOnUse" color-interpolation-filters="sRGB">
<feFlood flood-opacity="0" result="BackgroundImageFix"/>
<feColorMatrix in="SourceAlpha" type="matrix" values="0 0 0 0 0 0 0 0 0 0 0 0 0 0 0 0 0 0 127 0" result="hardAlpha"/>
<feOffset/>
<feGaussianBlur stdDeviation="1"/>
<feComposite in2="hardAlpha" operator="out"/>
<feColorMatrix type="matrix" values="0 0 0 0 0 0 0 0 0 0 0 0 0 0 0 0 0 0 0.5 0"/>
<feBlend mode="normal" in2="BackgroundImageFix" result="effect1_dropShadow_555_12277"/>
<feBlend mode="normal" in="SourceGraphic" in2="effect1_dropShadow_555_12277" result="shape"/>
</filter>
</defs>
</svg>
